<svg xmlns="http://www.w3.org/2000/svg" viewBox="0 0 512 512">
  <defs>
    <linearGradient id="grad1" x1="0%" y1="0%" x2="100%" y2="100%">
      <stop offset="0%" style="stop-color:#3b82f6;stop-opacity:1" />
      <stop offset="100%" style="stop-color:#8b5cf6;stop-opacity:1" />
    </linearGradient>
  </defs>
  <path d="M256 0C256 0 51.2 51.2 51.2 256C51.2 409.6 256 512 256 512C256 512 460.8 409.6 460.8 256C460.8 51.2 256 0 256 0Z" fill="url(#grad1)"/>
  <path d="M256 128C220.65 128 192 156.65 192 192C192 227.35 220.65 256 256 256C291.35 256 320 227.35 320 192C320 156.65 291.35 128 256 128ZM256 384C220.65 384 192 355.35 192 320V288H320V320C320 355.35 291.35 384 256 384Z" fill="#ffffff"/>
  <rect x="224" y="256" width="64" height="64" fill="#ffffff"/>
</svg>
