<svg xmlns="http://www.w3.org/2000/svg" viewBox="0 0 1200 630">
  <defs>
    <linearGradient id="bg" x1="0%" y1="0%" x2="100%" y2="100%">
      <stop offset="0%" style="stop-color:#0f172a;stop-opacity:1" />
      <stop offset="100%" style="stop-color:#1e293b;stop-opacity:1" />
    </linearGradient>
    <linearGradient id="grad1" x1="0%" y1="0%" x2="100%" y2="100%">
      <stop offset="0%" style="stop-color:#3b82f6;stop-opacity:1" />
      <stop offset="100%" style="stop-color:#8b5cf6;stop-opacity:1" />
    </linearGradient>
  </defs>
  <rect width="1200" height="630" fill="url(#bg)"/>
  
  <g transform="translate(150, 165) scale(0.6)">
    <path d="M256 0C256 0 51.2 51.2 51.2 256C51.2 409.6 256 512 256 512C256 512 460.8 409.6 460.8 256C460.8 51.2 256 0 256 0Z" fill="url(#grad1)"/>
    <path d="M256 128C220.65 128 192 156.65 192 192C192 227.35 220.65 256 256 256C291.35 256 320 227.35 320 192C320 156.65 291.35 128 256 128ZM256 384C220.65 384 192 355.35 192 320V288H320V320C320 355.35 291.35 384 256 384Z" fill="#ffffff"/>
    <rect x="224" y="256" width="64" height="64" fill="#ffffff"/>
  </g>

  <text x="500" y="280" font-family="Inter, sans-serif" font-size="64" font-weight="bold" fill="#f8fafc">MD5 Hash Generator</text>
  <text x="500" y="340" font-family="Inter, sans-serif" font-size="32" fill="#cbd5e1">Instant &amp; Secure Online Conversion</text>

  <g transform="translate(500, 420)">
    <circle cx="10" cy="10" r="6" fill="#3b82f6"/>
    <text x="30" y="18" font-family="Inter, sans-serif" font-size="24" fill="#94a3b8">Client-side Processing</text>
    
    <circle cx="10" cy="50" r="6" fill="#3b82f6"/>
    <text x="30" y="58" font-family="Inter, sans-serif" font-size="24" fill="#94a3b8">Modern &amp; Fast</text>
    
    <circle cx="10" cy="90" r="6" fill="#3b82f6"/>
    <text x="30" y="98" font-family="Inter, sans-serif" font-size="24" fill="#94a3b8">Privacy First</text>
  </g>
</svg>
